<?xml version="1.0" standalone="no"?>
<!DOCTYPE svg PUBLIC "-//W3C//DTD SVG 20010904//EN"
 "http://www.w3.org/TR/2001/REC-SVG-20010904/DTD/svg10.dtd">
<svg version="1.0" xmlns="http://www.w3.org/2000/svg"
 width="500.000000pt" height="500.000000pt" viewBox="0 0 500.000000 500.000000"
 preserveAspectRatio="xMidYMid meet">
<metadata>
Created by potrace 1.14, written by Peter Selinger 2001-2017
</metadata>
<g transform="translate(0.000000,500.000000) scale(0.100000,-0.100000)"
fill="#000000" stroke="none">
<path d="M0 2500 l0 -2500 2500 0 2500 0 0 2500 0 2500 -2500 0 -2500 0 0
-2500z m1411 140 c244 -897 326 -1184 332 -1167 5 12 62 198 128 412 65 215
215 705 333 1090 l214 700 104 3 105 3 101 -328 c56 -180 209 -681 342 -1112
132 -432 242 -786 243 -787 1 -2 29 95 61 214 33 119 96 354 142 522 45 168
157 582 249 920 91 338 173 639 181 668 l15 52 130 0 c120 0 130 -1 125 -17
-3 -10 -57 -207 -121 -438 -121 -436 -218 -789 -407 -1470 -61 -220 -132 -476
-157 -570 l-47 -170 -150 -3 -150 -3 -309 993 c-170 546 -316 1018 -325 1048
-11 36 -20 50 -24 40 -3 -9 -154 -479 -334 -1045 l-328 -1030 -150 -3 -150 -2
-367 1327 c-202 731 -367 1331 -367 1336 0 4 58 7 128 7 l129 0 324 -1190z"/>
</g>
</svg>
